<svg width="200" height="200" viewBox="0 0 200 200" fill="none" xmlns="http://www.w3.org/2000/svg">
<rect width="200" height="200" fill="#848484"/>
<path d="M100.001 46.6665C94.3427 46.6665 88.9165 48.9141 84.9157 52.9149C80.9149 56.9157 78.6673 62.3419 78.6673 67.9998C78.6673 73.6578 80.9149 79.084 84.9157 83.0848C88.9165 87.0856 94.3427 89.3332 100.001 89.3332C105.659 89.3332 111.085 87.0856 115.086 83.0848C119.086 79.084 121.334 73.6578 121.334 67.9998C121.334 62.3419 119.086 56.9157 115.086 52.9149C111.085 48.9141 105.659 46.6665 100.001 46.6665ZM126.667 99.9998H73.334C69.0905 99.9998 65.0209 101.686 62.0203 104.686C59.0197 107.687 57.334 111.756 57.334 116C57.334 127.904 62.23 137.44 70.262 143.893C78.166 150.24 88.7687 153.333 100.001 153.333C111.233 153.333 121.835 150.24 129.739 143.893C137.761 137.44 142.667 127.904 142.667 116C142.667 111.756 140.982 107.687 137.981 104.686C134.98 101.686 130.911 99.9998 126.667 99.9998Z" fill="#B9B8B8"/>
</svg>
