<svg width="20" height="20" viewBox="0 0 20 20" fill="none" xmlns="http://www.w3.org/2000/svg">
<g clip-path="url(#clip0_137_2656)">
<path d="M10 4.44444L6.11111 0H0L7.77778 9.44444L14.1783 6.80556L10 4.44444Z" fill="#55ACEE"/>
<path d="M13.8889 0L10 4.44444L12.9944 8.50667L13.6761 7.67944L20 0H13.8889Z" fill="#3B88C3"/>
<path d="M12.8942 8.90334C12.9387 8.78278 12.967 8.65445 12.967 8.51834C12.967 8.22365 12.85 7.94104 12.6416 7.73266C12.4332 7.52429 12.1506 7.40723 11.8559 7.40723H8.15201C7.85733 7.40723 7.57471 7.52429 7.36634 7.73266C7.15797 7.94104 7.0409 8.22365 7.0409 8.51834C7.0409 8.65445 7.06868 8.78278 7.11368 8.90334C5.30368 9.91778 4.07813 11.8517 4.07813 14.0739C4.07757 17.3467 6.7309 20 10.0037 20C13.2765 20 15.9298 17.3467 15.9298 14.0739C15.9298 11.8517 14.7042 9.91778 12.8942 8.90334Z" fill="#FFAC33"/>
<path d="M10.7772 10.3334H9.82108L8.30441 11.5178C8.26899 11.5625 8.24736 11.6166 8.24219 11.6734V12.3278C8.24219 12.4312 8.32552 12.5245 8.42941 12.5245H9.42663V17.1989C9.42663 17.3034 9.50997 17.3962 9.62385 17.3962H10.7772C10.8805 17.3962 10.9639 17.3028 10.9639 17.1989V10.53C10.9639 10.4267 10.8811 10.3334 10.7772 10.3334Z" fill="#9E5200"/>
</g>
<defs>
<clipPath id="clip0_137_2656">
<rect width="20" height="20" fill="white"/>
</clipPath>
</defs>
</svg>
