<svg width="20" height="20" viewBox="0 0 20 20" fill="none" xmlns="http://www.w3.org/2000/svg">
<g clip-path="url(#clip0_137_2649)">
<path d="M10 4.44444L6.11111 0H0L7.77778 9.44444L14.1783 6.80556L10 4.44444Z" fill="#55ACEE"/>
<path d="M13.8889 0L10 4.44444L12.9944 8.50667L13.6761 7.67944L20 0H13.8889Z" fill="#3B88C3"/>
<path d="M12.8942 8.90334C12.9387 8.78278 12.967 8.65445 12.967 8.51834C12.967 8.22365 12.85 7.94104 12.6416 7.73266C12.4332 7.52429 12.1506 7.40723 11.8559 7.40723H8.15201C7.85733 7.40723 7.57471 7.52429 7.36634 7.73266C7.15797 7.94104 7.0409 8.22365 7.0409 8.51834C7.0409 8.65445 7.06868 8.78278 7.11368 8.90334C5.30368 9.91778 4.07813 11.8517 4.07813 14.0739C4.07757 17.3467 6.7309 20 10.0037 20C13.2765 20 15.9298 17.3467 15.9298 14.0739C15.9298 11.8517 14.7042 9.91778 12.8942 8.90334Z" fill="#CCD6DD"/>
<path d="M12.2272 16.0673H10.2588C10.7466 15.3817 11.5988 14.2706 11.931 13.6778C12.1805 13.1895 12.336 12.8784 12.336 12.3278C12.336 11.1745 11.4638 10.2295 9.97826 10.2295C8.74215 10.2295 7.90049 11.2473 7.90049 11.2473C7.82771 11.3306 7.83826 11.455 7.91104 11.5178L8.54493 12.1617C8.56362 12.1815 8.58614 12.1972 8.61112 12.208C8.6361 12.2187 8.66301 12.2243 8.69021 12.2243C8.7174 12.2243 8.74431 12.2187 8.76929 12.208C8.79427 12.1972 8.8168 12.1815 8.83549 12.1617C9.03271 11.9434 9.41715 11.6423 9.84271 11.6423C10.4244 11.6423 10.7572 11.995 10.7572 12.39C10.7572 12.6806 10.6222 12.9717 10.4872 13.1795C9.87382 14.1139 8.3366 16.2023 7.73438 16.9917V17.1995C7.73438 17.3039 7.81715 17.3967 7.9316 17.3967H12.2272C12.2789 17.3949 12.328 17.3736 12.3646 17.337C12.4012 17.3004 12.4226 17.2512 12.4244 17.1995V16.265C12.4228 16.2132 12.4016 16.1638 12.3649 16.1271C12.3283 16.0903 12.279 16.0689 12.2272 16.0673Z" fill="#627077"/>
</g>
<defs>
<clipPath id="clip0_137_2649">
<rect width="20" height="20" fill="white"/>
</clipPath>
</defs>
</svg>
