<svg xmlns:xlink="http://www.w3.org/1999/xlink" xmlns="http://www.w3.org/2000/svg" viewBox="0 0 347.8035724237817 31.306817548502583" preserveAspectRatio="xMidYMid meet" class="css-88gl6m" id="cgfahaed" width="347.8035724237817"  height="31.306817548502583" ><defs id="SvgjsDefs1013"></defs><g id="SvgjsG1014" featurekey="nameLeftFeature-0" transform="matrix(2.23620125346447,0,0,2.23620125346447,-2.6834432102435257,-13.417207520786821)" fill="#FFFFFF"><path d="M16.2 6 l0 14 l-3 0 l0 -7.44 l-3.26 7.44 l-2.52 0 l-3.22 -7.4 l0 7.4 l-3 0 l0 -14 l2.88 0 l4.62 10.1 l4.62 -10.1 l2.88 0 z" fill="#FFFFFF"></path></g><g id="SvgjsG1015" featurekey="inlineSymbolFeature-0" transform="matrix(0.6261363509700516,0,0,0.6261363509700516,39,-3.130681754850258)" fill="#FFFFFF"><g xmlns="http://www.w3.org/2000/svg" fill="#FFFFFF"><g fill="#FFFFFF"><path d="M56,9.637V6c0-0.552-0.448-1-1-1H41c-0.552,0-1,0.448-1,1v3.093c-5.143,0.922-7,8.96-7,15.907    c0,1.92,0.834,3.94,3.021,4.691C36.253,34.538,38.93,37,44,37h8c5.159,0,8-4.262,8-12C60,21.758,59.674,12.188,56,9.637z M42,7h12    v2H42V7z M52,35h-8c-3.91,0-5.691-1.47-5.959-5.002c1.588-0.012,2.891-0.707,3.666-1.963c0.693-1.121,0.85-2.559,0.452-3.827    c0.42-0.277,1.339-0.668,2.873-0.909c2.944-0.461,6.728-0.126,8.261,1.408c0.391,0.391,1.023,0.391,1.414,0s0.391-1.023,0-1.414    c-2.132-2.133-6.594-2.518-10.07-1.956c-1.392,0.226-3.83,0.813-4.531,2.215c-0.141,0.282-0.141,0.613,0,0.896    c0.394,0.785,0.353,1.804-0.1,2.536C39.718,27.447,39.139,28,38,28c-2.479,0-3-1.631-3-3c0-4.842,1.254-14,6-14h13    c2.598,0,4,7.213,4,14C58,31.636,55.98,35,52,35z M23.978,30.309C23.747,25.462,21.071,23,16,23H8c-5.159,0-8,4.262-8,12    c0,3.242,0.326,12.813,4,15.363V54c0,0.552,0.448,1,1,1h14c0.552,0,1-0.448,1-1v-3.093c5.142-0.923,7-8.96,7-15.907    C27,33.08,26.166,31.061,23.978,30.309z M18,53H6v-2h12V53z M19,49H6c-2.598,0-4-7.213-4-14c0-6.636,2.019-10,6-10h8    c3.91,0,5.691,1.47,5.959,5.002c-1.588,0.012-2.89,0.707-3.666,1.963c-0.693,1.121-0.85,2.559-0.452,3.827    c-0.42,0.276-1.339,0.668-2.873,0.909c-2.942,0.462-6.727,0.127-8.261-1.408c-0.391-0.391-1.023-0.391-1.414,0    s-0.391,1.023,0,1.414c2.133,2.133,6.595,2.52,10.071,1.956c1.391-0.226,3.829-0.813,4.53-2.215c0.141-0.282,0.141-0.613,0-0.896    c-0.393-0.785-0.352-1.804,0.1-2.535C20.282,32.553,20.862,32,22,32c2.479,0,3,1.631,3,3C25,39.842,23.746,49,19,49z" fill="#FFFFFF"></path></g></g></g><g id="SvgjsG1016" featurekey="nameRightFeature-0" transform="matrix(2.1740846095729194,0,0,2.1740846095729194,79.39109680981757,-12.609693223565317)" fill="#FFFFFF"><path d="M12.22 20 l-3.1 0 l-2.98 -4.66 l-0.04 0 l-1.98 0 l0 4.66 l-2.92 0 l0 -14 l4.9 0 c3.14 0 5.18 1.9 5.18 4.76 c0 1.9 -0.92 3.32 -2.48 4.04 z M4.12 8.68 l0 4.14 l1.8 0 c1.44 0 2.44 -0.56 2.44 -2.06 c0 -1.48 -1 -2.08 -2.44 -2.08 l-1.8 0 z M23.52 6 l0 2.68 l-3.48 0 l0 11.32 l-2.92 0 l0 -11.32 l-3.5 0 l0 -2.68 l9.9 0 z M28.44 6 l0 14 l-2.92 0 l0 -14 l2.92 0 z M42.02 20 l-1.06 -2.5 l-6.76 0 l-1.06 2.5 l-3.1 0 l6.22 -14 l2.64 0 l6.24 14 l-3.12 0 z M35.22 15.120000000000001 l4.72 0 l-2.36 -5.54 z M49.66 17.32 l5.5 0 l0 2.68 l-8.42 0 l0 -14 l2.92 0 l0 11.32 z M66.66 6 l0 2.68 l-3.48 0 l0 11.32 l-2.92 0 l0 -11.32 l-3.5 0 l0 -2.68 l9.9 0 z M79.68 20 l-3.1 0 l-2.98 -4.66 l-0.04 0 l-1.98 0 l0 4.66 l-2.92 0 l0 -14 l4.9 0 c3.14 0 5.18 1.9 5.18 4.76 c0 1.9 -0.92 3.32 -2.48 4.04 z M71.58000000000001 8.68 l0 4.14 l1.8 0 c1.44 0 2.44 -0.56 2.44 -2.06 c0 -1.48 -1 -2.08 -2.44 -2.08 l-1.8 0 z M92.66 20 l-1.06 -2.5 l-6.76 0 l-1.06 2.5 l-3.1 0 l6.22 -14 l2.64 0 l6.24 14 l-3.12 0 z M85.86 15.120000000000001 l4.72 0 l-2.36 -5.54 z M109.14000000000001 18.5 c-1.24 1.12 -2.9 1.7 -4.76 1.7 c-3.92 0 -7.3 -2.94 -7.3 -7.2 s3.38 -7.2 7.3 -7.2 c1.84 0 3.48 0.6 4.68 1.66 l-1.76 1.98 c-0.74 -0.52 -1.74 -0.9 -2.76 -0.9 c-2.52 0 -4.42 1.86 -4.42 4.46 s1.9 4.46 4.42 4.46 c1.06 0 2.1 -0.4 2.86 -1 z M120.10000000000001 20 l-4.34 -6 l-1.72 1.96 l0 4.04 l-3 0 l0 -14 l3 0 l0 6.1 l5.18 -6.1 l3.6 0 l-5.26 5.96 l5.9 8.04 l-3.36 0 z" fill="#FFFFFF"></path></g></svg>