<svg width="20" height="20" viewBox="0 0 20 20" fill="none" xmlns="http://www.w3.org/2000/svg">
<g clip-path="url(#clip0_137_2642)">
<path d="M10 4.44444L6.11111 0H0L7.77778 9.44444L14.1783 6.80556L10 4.44444Z" fill="#55ACEE"/>
<path d="M13.8889 0L10 4.44444L12.9944 8.50667L13.6761 7.67944L20 0H13.8889Z" fill="#3B88C3"/>
<path d="M12.8942 8.90334C12.9387 8.78278 12.967 8.65445 12.967 8.51834C12.967 8.22365 12.85 7.94104 12.6416 7.73266C12.4332 7.52429 12.1506 7.40723 11.8559 7.40723H8.15201C7.85733 7.40723 7.57471 7.52429 7.36634 7.73266C7.15797 7.94104 7.0409 8.22365 7.0409 8.51834C7.0409 8.65445 7.06868 8.78278 7.11368 8.90334C5.30368 9.91778 4.07813 11.8517 4.07813 14.0739C4.07757 17.3467 6.7309 20 10.0037 20C13.2765 20 15.9298 17.3467 15.9298 14.0739C15.9298 11.8517 14.7042 9.91778 12.8942 8.90334Z" fill="#D77431"/>
<path d="M7.84157 16.3056L8.49601 15.6511C8.52866 15.6156 8.57351 15.5937 8.6216 15.5898C8.66969 15.5859 8.71749 15.6003 8.75545 15.63C8.75545 15.63 9.39934 16.1084 9.89768 16.1084C10.3449 16.1084 10.8021 15.7345 10.8021 15.2773C10.8021 14.82 10.3343 14.4361 9.56601 14.4361H9.21101C9.15933 14.4343 9.11027 14.413 9.07375 14.3764C9.03724 14.3397 9.016 14.2906 9.01434 14.2389V13.3767C9.01434 13.2623 9.10768 13.1795 9.21101 13.1795H9.56601C10.2932 13.1795 10.6771 12.8267 10.6771 12.38C10.6771 11.9328 10.2932 11.6011 9.84601 11.6011C9.38879 11.6011 9.09823 11.84 8.94268 12.0161C8.86934 12.0995 8.74545 12.0995 8.66268 12.0273L8.02879 11.4039C7.9449 11.3306 7.95545 11.2067 8.02879 11.1339C8.02879 11.1339 8.88045 10.2195 10.0121 10.2195C11.2171 10.2195 12.256 10.9573 12.256 12.1206C12.256 12.92 11.6532 13.5123 11.186 13.73V13.7617C11.6743 13.9695 12.4427 14.6134 12.4427 15.5067C12.4427 16.6389 11.456 17.4911 10.0221 17.4911C8.71434 17.4911 8.04879 16.8467 7.83101 16.5667C7.76823 16.4923 7.77934 16.3778 7.84157 16.3056Z" fill="#6E3814"/>
</g>
<defs>
<clipPath id="clip0_137_2642">
<rect width="20" height="20" fill="white"/>
</clipPath>
</defs>
</svg>
