<svg width="200" height="200" viewBox="0 0 200 200" fill="none" xmlns="http://www.w3.org/2000/svg">
<rect width="200" height="200" fill="#848484"/>
<path d="M94.2647 54.5598C94.7929 53.488 95.6105 52.5855 96.6251 51.9544C97.6397 51.3233 98.8106 50.9888 100.005 50.9888C101.2 50.9888 102.371 51.3233 103.386 51.9544C104.4 52.5855 105.218 53.488 105.746 54.5598L118.098 79.5838L145.727 83.603C146.909 83.7746 148.02 84.2737 148.933 85.0436C149.846 85.8136 150.526 86.8238 150.894 87.9598C151.263 89.0959 151.307 90.3126 151.02 91.4722C150.734 92.6317 150.128 93.688 149.273 94.5214L129.279 114.003L134.002 141.523C134.204 142.7 134.072 143.91 133.622 145.016C133.172 146.122 132.422 147.08 131.456 147.782C130.489 148.484 129.346 148.901 128.155 148.987C126.964 149.073 125.773 148.824 124.716 148.269L100.012 135.277L75.2951 148.269C74.2378 148.823 73.0465 149.071 71.8559 148.984C70.6652 148.897 69.5226 148.478 68.5572 147.776C67.5919 147.073 66.8422 146.115 66.393 145.009C65.9437 143.903 65.8129 142.693 66.0151 141.517L70.7319 114.003L50.7383 94.5214C49.8826 93.688 49.2772 92.6317 48.9906 91.4722C48.704 90.3126 48.7476 89.0959 49.1165 87.9598C49.4855 86.8238 50.165 85.8136 51.0782 85.0436C51.9914 84.2737 53.1018 83.7746 54.2839 83.603L81.9127 79.5902L94.2647 54.5598ZM64.0951 117.197C64.3579 117.525 64.5534 117.901 64.6705 118.305C64.7876 118.709 64.8241 119.132 64.7777 119.55C64.7313 119.967 64.6031 120.372 64.4003 120.74C64.1975 121.109 63.9242 121.433 63.5959 121.696L47.5959 134.496C47.2691 134.771 46.8906 134.978 46.4826 135.104C46.0746 135.231 45.6454 135.274 45.2203 135.233C44.7952 135.191 44.3828 135.064 44.0075 134.86C43.6321 134.656 43.3013 134.379 43.0347 134.045C42.7681 133.712 42.5709 133.328 42.4549 132.917C42.339 132.506 42.3065 132.076 42.3594 131.652C42.4123 131.228 42.5495 130.819 42.763 130.449C42.9764 130.079 43.2618 129.755 43.6023 129.497L59.6023 116.697C60.2646 116.169 61.1096 115.924 61.9519 116.018C62.7942 116.112 63.565 116.535 64.0951 117.197ZM63.5959 68.7038C63.9463 68.958 64.2416 69.2807 64.4637 69.6523C64.6858 70.0239 64.8302 70.4367 64.8881 70.8658C64.9461 71.2948 64.9164 71.7311 64.8008 72.1484C64.6852 72.5656 64.4862 72.955 64.2157 73.2931C63.9453 73.6311 63.609 73.9108 63.2273 74.1152C62.8457 74.3195 62.4265 74.4443 61.9952 74.4819C61.5639 74.5196 61.1295 74.4693 60.7181 74.3342C60.3068 74.1991 59.9272 73.9819 59.6023 73.6958L43.6023 60.8958C43.2518 60.6416 42.9566 60.3189 42.7345 59.9473C42.5124 59.5757 42.368 59.1628 42.31 58.7338C42.2521 58.3048 42.2818 57.8684 42.3974 57.4512C42.513 57.034 42.712 56.6445 42.9825 56.3065C43.2529 55.9684 43.5892 55.6887 43.9708 55.4844C44.3525 55.28 44.7717 55.1553 45.203 55.1176C45.6343 55.08 46.0687 55.1302 46.48 55.2654C46.8913 55.4005 47.271 55.6177 47.5959 55.9038L63.5959 68.7038ZM135.903 117.203C135.64 117.531 135.445 117.908 135.328 118.312C135.211 118.715 135.174 119.138 135.22 119.556C135.267 119.974 135.395 120.378 135.598 120.747C135.801 121.115 136.074 121.44 136.402 121.702L152.402 134.502C152.729 134.777 153.108 134.984 153.516 135.111C153.924 135.237 154.353 135.281 154.778 135.239C155.203 135.197 155.615 135.07 155.991 134.866C156.366 134.663 156.697 134.386 156.964 134.052C157.23 133.718 157.427 133.334 157.543 132.923C157.659 132.512 157.692 132.082 157.639 131.658C157.586 131.234 157.449 130.825 157.235 130.455C157.022 130.085 156.736 129.762 156.396 129.504L140.396 116.704C140.068 116.441 139.691 116.245 139.287 116.128C138.884 116.011 138.461 115.975 138.043 116.021C137.625 116.068 137.22 116.196 136.852 116.399C136.484 116.601 136.166 116.875 135.903 117.203ZM136.396 68.7038C135.779 69.2473 135.394 70.0078 135.323 70.8272C135.251 71.6467 135.498 72.4622 136.012 73.1045C136.526 73.7468 137.267 74.1666 138.082 74.2767C138.897 74.3868 139.724 74.1788 140.389 73.6958L156.39 60.8958C156.74 60.6416 157.035 60.3189 157.257 59.9473C157.479 59.5757 157.624 59.1628 157.682 58.7338C157.74 58.3048 157.71 57.8684 157.594 57.4512C157.479 57.034 157.28 56.6445 157.009 56.3065C156.739 55.9684 156.403 55.6887 156.021 55.4844C155.639 55.28 155.22 55.1553 154.789 55.1176C154.358 55.08 153.923 55.1302 153.512 55.2654C153.1 55.4005 152.721 55.6177 152.396 55.9038L136.396 68.7038Z" fill="#B9B8B8"/>
</svg>
